<svg xmlns="http://www.w3.org/2000/svg" viewBox="0 0 64 64" role="img" aria-label="GitPilot">
  <defs>
    <linearGradient id="mark-bg" x1="8" y1="8" x2="56" y2="58" gradientUnits="userSpaceOnUse">
      <stop offset="0" stop-color="#17212b"/>
      <stop offset="1" stop-color="#263847"/>
    </linearGradient>
    <linearGradient id="mark-route" x1="14" y1="49" x2="49" y2="14" gradientUnits="userSpaceOnUse">
      <stop offset="0" stop-color="#ff8552"/>
      <stop offset="1" stop-color="#62d9c1"/>
    </linearGradient>
  </defs>
  <rect width="64" height="64" rx="16" fill="url(#mark-bg)"/>
  <path id="git-branch" d="M17 47V24c0-5.5 4.5-10 10-10h3c5.5 0 10 4.5 10 10v3" fill="none" stroke="url(#mark-route)" stroke-width="4" stroke-linecap="round"/>
  <path d="M17 37h13c5.5 0 10 4.5 10 10" fill="none" stroke="url(#mark-route)" stroke-width="4" stroke-linecap="round"/>
  <circle cx="17" cy="47" r="5" fill="#ff8552" stroke="#fff" stroke-width="2"/>
  <circle cx="17" cy="24" r="5" fill="#62d9c1" stroke="#fff" stroke-width="2"/>
  <circle cx="40" cy="47" r="5" fill="#62d9c1" stroke="#fff" stroke-width="2"/>
  <path id="ai-spark" d="M46 14l1.7 5.3L53 21l-5.3 1.7L46 28l-1.7-5.3L39 21l5.3-1.7L46 14z" fill="#fff"/>
  <path d="M50 31l.9 2.7 2.6.9-2.6.9L50 38l-.9-2.5-2.6-.9 2.6-.9L50 31z" fill="#ffb08c"/>
</svg>
