<svg width="64" height="64" viewBox="0 0 64 64" fill="none" xmlns="http://www.w3.org/2000/svg" role="img" aria-label="GitPilot">
  <defs>
    <linearGradient id="faviconGradient" x1="8" y1="8" x2="56" y2="56" gradientUnits="userSpaceOnUse">
      <stop stop-color="#17212B" />
      <stop offset="1" stop-color="#263847" />
    </linearGradient>
    <linearGradient id="routeGradient" x1="14" y1="49" x2="49" y2="14" gradientUnits="userSpaceOnUse">
      <stop stop-color="#FF8552" />
      <stop offset="1" stop-color="#62D9C1" />
    </linearGradient>
  </defs>
  <rect x="4" y="4" width="56" height="56" rx="15" fill="url(#faviconGradient)" />
  <path id="git-branch" d="M17 48V24c0-5.5 4.5-10 10-10h3c5.5 0 10 4.5 10 10v3M17 37h13c5.5 0 10 4.5 10 10" stroke="url(#routeGradient)" stroke-width="4" stroke-linecap="round" />
  <circle cx="17" cy="48" r="5" fill="#FF8552" stroke="white" stroke-width="2.5" />
  <circle cx="17" cy="24" r="5" fill="#62D9C1" stroke="white" stroke-width="2.5" />
  <circle cx="40" cy="47" r="5" fill="#62D9C1" stroke="white" stroke-width="2.5" />
  <path id="ai-spark" d="M47 14l2 5.5 5.5 2-5.5 2L47 29l-2-5.5-5.5-2 5.5-2L47 14z" fill="white" />
  <path d="M51 33l1 3 3 1-3 1-1 3-1-3-3-1 3-1 1-3z" fill="#FFB08C" />
</svg>
